<?xml version="1.0" encoding="UTF-8"?>
<svg id="Layer_1" data-name="Layer 1" xmlns="http://www.w3.org/2000/svg" viewBox="0 0 577 577">
  <defs>
    <style>
      .cls-1, .cls-2 {
        fill: none;
      }

      .cls-1, .cls-2, .cls-3 {
        stroke: #231f20;
        stroke-miterlimit: 10;
      }

      .cls-1, .cls-3 {
        stroke-width: 26px;
      }

      .cls-2 {
        stroke-width: 18px;
      }

      .cls-3 {
        fill: #fff;
      }
    </style>
  </defs>
  <path class="cls-3" d="m88.33,400.71C269.57,198.13,361.51,95.36,361.51,95.36"/>
  <path class="cls-1" d="m256.35,532.55c-23.13-6.21-70.92-22.33-112.91-64.08-29.93-29.75-45.03-60.72-52.65-80.39"/>
  <path class="cls-3" d="m243.65,535.21c138.49-153.46,208.74-231.32,208.74-231.32"/>
  <path class="cls-1" d="m462.58,299.19c-18.48,0-33.47-29.44-33.47-65.75,0-36.31,14.98-65.75,33.47-65.75"/>
  <path class="cls-2" d="m111.25,424.51c239.67-120.27,312.66-201.43,312.66-201.43"/>
  <path class="cls-1" d="m348.06,98.18c12.56,3.98,38.98,13.42,66.03,31.75,19.28,13.07,31.24,25.47,37.84,33.21"/>
</svg>